<svg width="16" height="17" viewBox="0 0 16 17" fill="none" xmlns="http://www.w3.org/2000/svg">
<g clip-path="url(#clip0_1203_3994)">
<path d="M16 15.7938L11.7462 11.54C12.7552 10.3692 13.366 8.84616 13.366 7.183C13.366 3.49798 10.368 0.5 6.683 0.5C2.99798 0.5 0 3.49798 0 7.183C0 10.868 2.99798 13.866 6.683 13.866C8.34616 13.866 9.86924 13.2552 11.04 12.2462L15.2938 16.5L16 15.7938ZM0.998739 7.183C0.998739 4.04869 3.54869 1.49874 6.683 1.49874C9.81731 1.49874 12.3673 4.04869 12.3673 7.183C12.3673 10.3173 9.81731 12.8673 6.683 12.8673C3.54869 12.8673 0.998739 10.3173 0.998739 7.183Z" fill="#A5A5A5"/>
</g>
<defs>
<clipPath id="clip0_1203_3994">
<rect width="16" height="16" fill="white" transform="translate(0 0.5)"/>
</clipPath>
</defs>
</svg>
